<?xml version="1.0" encoding="utf-8"?>
<!-- Generator: Adobe Illustrator 27.5.0, SVG Export Plug-In . SVG Version: 6.00 Build 0)  -->
<svg version="1.1" id="Capa_1" xmlns="http://www.w3.org/2000/svg" xmlns:xlink="http://www.w3.org/1999/xlink" x="0px" y="0px"
	 viewBox="0 0 2122 2122" style="enable-background:new 0 0 2122 2122;" xml:space="preserve">
<g>
	<path style="fill:#FDDAAF;" d="M1640.854,883.586c-7.573-18.675-15.776-37.043-24.328-55.25
		c-42.341-90.139-92.609-176.545-130.085-268.96c-24.446-60.156-47.05-128.121-51.406-195.459c-0.47-7.455-0.745-14.875-0.745-22.29
		c-0.039-24.799,2.668-49.325,8.948-73.222c3.649-13.852,8.358-28.137,5.61-42.222c-4.277-22.056-26.017-37.087-48.071-41.365
		c-22.012-4.239-44.655-0.117-66.945,2.67c-164.146,20.248-326.838-35.079-489.885-62.709
		c-59.608-10.124-121.138-16.478-180.236-3.727c-78.677,16.955-162.574,79.62-157.671,168.346
		c3.101,56.034,54.585,80.877,78.679,126.158c7.535,14.129,13.932,28.765,19.425,43.756c2.079,5.708,4.013,11.47,5.826,17.274
		c0.548,1.755,1.011,3.538,1.535,5.301c1.211,4.072,2.426,8.143,3.515,12.253c0.565,2.13,1.044,4.284,1.578,6.423
		c0.939,3.772,1.893,7.539,2.737,11.337c0.52,2.34,0.962,4.698,1.447,7.046c0.748,3.619,1.51,7.233,2.177,10.868
		c0.461,2.514,0.854,5.039,1.278,7.56c0.585,3.475,1.182,6.946,1.699,10.43c0.405,2.722,0.746,5.451,1.11,8.178
		c0.436,3.265,0.885,6.528,1.265,9.797c0.351,3.012,0.646,6.024,0.952,9.038c0.299,2.942,0.611,5.882,0.869,8.824
		c0.3,3.419,0.549,6.833,0.797,10.249c0.262,3.605,0.556,7.213,0.763,10.811c15.501,269.744-39.517,540.701-130.319,793.806
		c-29.04,80.955-62.239,161.559-73.656,246.358c-0.671,4.966-1.241,9.957-1.743,14.962c-0.156,1.564-0.268,3.136-0.408,4.702
		c-0.309,3.469-0.596,6.939-0.819,10.42c-0.118,1.838-0.203,3.68-0.297,5.521c-0.166,3.26-0.301,6.52-0.39,9.786
		c-0.051,1.884-0.087,3.769-0.112,5.654c-0.043,3.305-0.037,6.607,0.003,9.912c0.021,1.789,0.035,3.578,0.081,5.367
		c0.093,3.623,0.259,7.239,0.455,10.856c0.078,1.442,0.128,2.886,0.223,4.327c0.672,10.195,1.763,20.347,3.306,30.411
		c0.183,1.19,0.412,2.369,0.607,3.557c0.624,3.794,1.292,7.577,2.047,11.341c0.32,1.601,0.682,3.191,1.027,4.786
		c0.726,3.355,1.496,6.696,2.331,10.021c0.428,1.7,0.873,3.394,1.329,5.086c0.875,3.243,1.811,6.465,2.793,9.673
		c0.507,1.653,1.006,3.308,1.541,4.952c1.098,3.369,2.282,6.705,3.504,10.029c0.515,1.401,0.996,2.816,1.535,4.208
		c1.673,4.336,3.454,8.63,5.348,12.877c0.15,0.334,0.276,0.677,0.427,1.01c2.072,4.594,4.293,9.124,6.633,13.598
		c0.647,1.237,1.36,2.442,2.028,3.67c1.363,2.505,2.691,5.029,4.142,7.493c0.488,0.828,1.014,1.639,1.513,2.464
		c0.431,0.714,0.87,1.423,1.309,2.134c2.46,3.975,5.022,7.9,7.724,11.754c0.421,0.6,0.861,1.188,1.288,1.785
		c2.87,4.017,5.836,7.981,8.966,11.841c24.526,30.216,55.486,53.608,90.254,71.264c16.952,8.672,34.847,15.971,53.291,22.012
		c49.756,16.443,103.674,23.859,155.551,24.921c11.968,0.234,23.778,0.117,35.435-0.273c2.275-0.083,4.59-0.161,6.867-0.277
		c71.693-3.216,143.072-10.714,214.609-16.127c31.786-2.436,63.532-4.433,95.396-5.495c101.162-3.372,212.804,27.001,311.654,3.766
		c243.215-57.135,281.003-388.448,287.283-581.553C1740.213,1229.223,1708.506,1049.929,1640.854,883.586z"/>
	<path style="fill:#A6C94E;" d="M1553.483,986.003c-48.821-104.482-167.13-215.517-290.628-203.956
		c-129.257,12.102-186.959,153.31-202.857,265.271c-16.911,119.079-13.503,253.217,36.999,364.272
		c35.691,78.484,102.906,146.718,187.269,164.526c190.258,40.161,282.959-120.921,304.428-295.643
		C1601.909,1172.897,1588.126,1060.146,1553.483,986.003z"/>
	<path style="fill:#0C7B35;" d="M1537.536,1217.934c-8.652-5.461-20.063-4.945-29.52-1.033
		c-9.452,3.922-17.323,10.816-24.784,17.817c-23.252,21.827-44.295,45.866-65.293,69.856
		c21.985-37.267,44.066-74.733,59.883-115.016c16.56-42.192,38.448-96.891,16.607-141.13c-2.663-5.379-6.1-10.538-10.952-14.076
		c-19.559-14.29-46.214,9.004-57.12,24.254c-9.99,13.963-15.683,30.46-21.255,46.704c-10.838,31.605-21.676,63.216-32.514,94.826
		c8.829-54.109,7.971-109.793-2.523-163.605c-6.833-35.049-18.772-71.011-45.082-95.166c-12.48-11.45-28.421-19.913-45.349-20.434
		c-6.083-0.185-11.59,0.58-16.517,2.154c-21.403,6.831-31.702,28.775-29.289,52.896c8.159,81.618,31.14,164.682,52.955,243.547
		c-14.253-29.442-35.764-54.762-58.599-78.183c-19.242-19.741-41.744-39.41-69.189-41.958
		c-28.341-2.631-40.545,19.542-32.757,44.579c9.868,31.688,29.696,57.491,53.667,79.907c26.399,24.697,78.46,74.377,106.365,97.369
		c-22.149-12.891-44.692-25.291-68.156-35.639c-16.292-7.191-33.763-14.884-51.88-15.201c-10.073-0.176-22.017,1.15-30.151,7.703
		c-21.199,17.086-2.784,49.218,14.497,60.302c10.794,6.923,23.101,10.889,34.47,16.701c23.067,11.79,46.555,23.006,68.672,36.546
		c15.708,9.617,31.42,19.24,47.128,28.858c12.502,7.654,32.553,25.953,47.428,26.962l1.203,0.039
		c18.351-0.034,44.816-28.107,59.186-39.128c21.966-16.838,42.402-35.62,63.02-54.066c26.019-23.274,52.356-47.479,69.335-78.446
		c5.138-9.379,9.413-19.567,9.678-30.246C1550.971,1234.933,1546.575,1223.649,1537.536,1217.934z"/>
	<path style="fill:#068D38;" d="M1482.591,1292.526c-4.709-1.384-9.683,3.581-13.318,6.041c-4.521,3.065-9.016,6.168-13.481,9.316
		c-9.053,6.372-17.976,12.931-26.763,19.664c-17.396,13.325-34.451,27.24-50.48,42.192c-4.502,4.2-8.925,8.473-13.296,12.809
		c-2.18,2.168-4.429,4.283-6.526,6.534c-0.334,0.359-0.68,0.718-1.021,1.08c-0.876-23.444-2.273-46.867-4.186-70.248
		c0.044-0.081,0.113-0.128,0.152-0.216c14.392-32.025,28.455-64.185,43.396-95.961c14.993-31.883,30.667-63.449,46.796-94.772
		c4.458-8.653,8.977-17.276,13.404-25.949c4.475-8.77,9.437-17.495,12.813-26.758c0.526-1.447-1.442-2.236-2.304-1.121
		c-5.406,6.987-9.652,14.889-13.998,22.568c-4.37,7.722-8.621,15.498-12.801,23.327c-8.361,15.659-16.56,31.401-24.521,47.265
		c-15.679,31.245-30.828,62.777-45.108,94.689c-6.502,14.53-12.844,29.13-18.93,43.838c-2.594-28.759-5.961-57.447-10.135-86.02
		c-8.568-58.631-20.443-116.775-35.569-174.061c-4.249-16.097-8.738-32.136-13.542-48.078c-4.806-15.956-9.499-32.059-15.547-47.586
		c-0.697-1.792-2.879-1.717-4.128-0.676c-3.278-9.176-6.688-18.305-10.384-27.319c-21.403,6.831-31.702,28.775-29.289,52.896
		c8.159,81.618,31.14,164.682,52.955,243.547c-14.253-29.442-35.764-54.762-58.599-78.183
		c-19.242-19.741-41.744-39.41-69.189-41.958c-28.341-2.631-40.545,19.542-32.757,44.579c9.868,31.688,29.696,57.491,53.667,79.907
		c26.399,24.697,78.46,74.377,106.365,97.369c-22.149-12.891-44.692-25.291-68.156-35.639c-16.292-7.191-33.763-14.884-51.88-15.201
		c-10.073-0.176-22.017,1.15-30.151,7.703c-21.199,17.086-2.784,49.218,14.497,60.302c10.794,6.923,23.101,10.889,34.47,16.701
		c23.067,11.79,46.555,23.006,68.672,36.546c15.708,9.617,31.42,19.24,47.128,28.858c12.502,7.654,32.553,25.953,47.428,26.962
		l1.203,0.039c1.868-15.886,2.862-31.844,3.255-47.84c1.552,1.589,4.561,1.38,5.133-0.873c0.972-0.393,1.689-1.316,1.294-2.386
		c3.287-1.573,6.255-5.198,8.648-7.356c3.956-3.571,7.976-7.079,11.981-10.592c8.326-7.303,16.701-14.543,25.191-21.652
		c16.667-13.954,33.825-27.308,51.51-39.946c5.064-3.615,10.168-7.182,15.318-10.679c2.543-1.725,5.101-3.43,7.659-5.14
		c2.377-1.589,4.429-3.026,4.807-6.012C1484.406,1293.992,1483.593,1292.818,1482.591,1292.526z"/>
	<path style="fill:#E6AC82;" d="M728.931,687.538c-26.804-66.514-68.477-157.51-124.787-228.224
		c2.079,5.708,4.013,11.47,5.826,17.274c0.548,1.755,1.011,3.538,1.535,5.301c1.211,4.072,2.426,8.143,3.515,12.253
		c0.565,2.13,1.044,4.284,1.578,6.423c0.939,3.772,1.893,7.539,2.737,11.337c0.52,2.34,0.962,4.698,1.447,7.046
		c0.748,3.619,1.51,7.233,2.177,10.868c0.461,2.514,0.854,5.039,1.278,7.56c0.585,3.475,1.182,6.946,1.699,10.43
		c0.405,2.722,0.746,5.451,1.11,8.178c0.436,3.265,0.885,6.528,1.265,9.797c0.351,3.012,0.646,6.024,0.952,9.038
		c0.299,2.942,0.611,5.882,0.869,8.824c0.3,3.419,0.549,6.833,0.797,10.249c0.127,1.758,0.296,3.52,0.41,5.276
		c0.117,1.846,0.234,3.688,0.353,5.535c15.501,269.744-39.517,540.701-130.319,793.806c-29.04,80.955-62.239,161.559-73.656,246.358
		c-0.671,4.966-1.241,9.957-1.743,14.962c-0.156,1.564-0.268,3.136-0.408,4.702c-0.309,3.469-0.596,6.939-0.819,10.42
		c-0.118,1.838-0.203,3.68-0.297,5.521c-0.166,3.26-0.301,6.52-0.39,9.786c-0.051,1.884-0.087,3.769-0.112,5.654
		c-0.043,3.305-0.037,6.607,0.003,9.912c0.021,1.789,0.035,3.578,0.081,5.367c0.093,3.623,0.259,7.239,0.455,10.856
		c0.078,1.442,0.128,2.886,0.223,4.327c0.672,10.195,1.763,20.347,3.306,30.411c0.183,1.19,0.412,2.369,0.607,3.557
		c0.624,3.794,1.292,7.577,2.047,11.341c0.32,1.601,0.682,3.191,1.027,4.786c0.726,3.355,1.496,6.696,2.331,10.021
		c0.428,1.7,0.873,3.394,1.329,5.086c0.875,3.243,1.811,6.465,2.793,9.673c0.507,1.653,1.006,3.308,1.541,4.952
		c1.098,3.369,2.282,6.705,3.504,10.029c0.515,1.401,0.996,2.816,1.535,4.208c1.673,4.336,3.454,8.63,5.348,12.877
		c0.15,0.334,0.276,0.677,0.427,1.01c2.072,4.594,4.293,9.124,6.633,13.598c0.647,1.237,1.36,2.442,2.028,3.67
		c1.363,2.505,2.691,5.029,4.142,7.493c0.488,0.828,1.014,1.639,1.513,2.464c0.431,0.714,0.87,1.423,1.309,2.134
		c2.46,3.975,5.022,7.9,7.724,11.754c0.421,0.6,0.861,1.188,1.288,1.785c2.87,4.017,5.836,7.981,8.966,11.841
		c24.526,30.216,55.486,53.608,90.254,71.264c16.952,8.672,34.847,15.971,53.291,22.012c47.245-19.854,89.154-55.406,119.018-97.549
		c50.11-70.714,71.732-157.476,86.095-242.943C886.327,1322.304,849.988,988.127,728.931,687.538z"/>
	<path style="fill:#E6AC82;" d="M1616.526,828.337c26.526,126.826,40.065,256.321,40.183,385.9
		c0.078,120.389-11.851,242.821-57.45,354.265c-45.598,111.444-128.28,211.512-239.293,258.051
		c-111.208,46.621-238.351,36.18-353.797,70.986c-69.927,21.072-134.713,58.982-187.532,109.447c2.275-0.083,4.59-0.161,6.867-0.277
		c71.693-3.216,143.072-10.714,214.609-16.127c31.786-2.436,63.532-4.433,95.396-5.495c101.162-3.372,212.804,27.001,311.654,3.766
		c243.215-57.135,281.003-388.448,287.283-581.553c5.768-178.076-25.939-357.369-93.591-523.712
		C1633.281,864.911,1625.078,846.544,1616.526,828.337z"/>
	<path style="fill:#5FB130;" d="M1357.867,1398.8c0.972-0.393,1.689-1.316,1.294-2.386c3.287-1.573,6.255-5.198,8.648-7.356
		c3.956-3.571,7.976-7.079,11.981-10.592c8.326-7.303,16.701-14.543,25.191-21.652c16.667-13.954,33.825-27.308,51.51-39.946
		c5.064-3.615,10.168-7.182,15.318-10.679c2.543-1.725,5.101-3.43,7.659-5.14c2.377-1.589,4.429-3.026,4.807-6.012
		c0.131-1.043-0.682-2.217-1.684-2.509c-4.709-1.384-9.683,3.581-13.318,6.041c-4.521,3.065-9.016,6.168-13.481,9.316
		c-9.053,6.372-17.976,12.931-26.763,19.664c-17.396,13.325-34.451,27.24-50.48,42.192c-4.502,4.2-8.925,8.473-13.296,12.809
		c-2.18,2.168-4.429,4.283-6.526,6.534c-0.334,0.359-0.68,0.718-1.021,1.08c-0.876-23.444-2.273-46.867-4.186-70.248
		c0.044-0.081,0.113-0.128,0.152-0.216c14.392-32.025,28.455-64.185,43.396-95.961c14.993-31.883,30.667-63.449,46.796-94.772
		c4.458-8.653,8.977-17.276,13.404-25.949c4.475-8.77,9.437-17.495,12.813-26.758c0.526-1.447-1.442-2.236-2.304-1.121
		c-5.406,6.987-9.652,14.889-13.998,22.568c-4.37,7.722-8.621,15.498-12.801,23.327c-8.361,15.659-16.56,31.401-24.521,47.265
		c-15.679,31.245-30.828,62.777-45.108,94.689c-6.502,14.53-12.844,29.13-18.93,43.838c-2.594-28.759-5.961-57.447-10.135-86.02
		c-8.568-58.631-20.443-116.775-35.569-174.061c-4.249-16.097-8.738-32.136-13.542-48.078c-4.806-15.956-9.499-32.059-15.547-47.586
		c-0.697-1.792-2.879-1.717-4.128-0.676c-0.681,0.567-1.096,1.41-0.815,2.42c3.929,14.149,8.689,28.063,12.902,42.134
		c4.217,14.086,8.273,28.219,12.129,42.407c4.814,17.718,9.28,35.53,13.471,53.406c2.522,10.757,4.968,21.532,7.263,32.339
		c6.527,30.756,12.103,61.71,16.778,92.799c4.072,27.073,7.467,54.249,10.118,81.5c0.287,2.953,0.519,5.912,0.789,8.867
		c-19.415-21.263-40.069-41.476-61.169-61.042c-23.547-21.837-47.854-42.914-73.008-62.879
		c-7.036-5.584-14.132-11.099-21.282-16.536c-7.344-5.588-14.714-12.087-22.94-16.317c-2.044-1.052-4.704,1.379-2.823,3.294
		c5.544,5.627,12.431,10.085,18.687,14.894c6.48,4.98,12.914,10.022,19.301,15.123c12.448,9.944,24.763,20.063,36.884,30.407
		c24.66,21.043,48.489,43.055,71.554,65.837c12.04,11.891,23.792,24.081,35.595,36.199c2.096,24.533,3.603,49.113,4.541,73.72
		c-1.738-1.195-3.497-2.331-5.089-3.401c-5.023-3.382-10.134-6.636-15.274-9.837c-10.115-6.295-20.419-12.273-30.919-17.91
		c-20.775-11.152-42.19-21.16-64.131-29.797c-6.183-2.431-12.402-4.76-18.66-6.992c-3.131-1.111-6.268-2.202-9.413-3.259
		c-3.184-1.077-6.346-2.631-9.744-1.783c-2.355,0.594-3.291,3.342-1.708,5.218c1.798,2.129,4.059,2.738,6.617,3.586
		c2.967,0.984,5.927,1.993,8.877,3.021c5.535,1.929,11.04,3.937,16.517,6.027c10.765,4.107,21.422,8.516,31.946,13.208
		c21.293,9.486,41.988,20.272,62.085,32.082c5.729,3.362,11.403,6.821,17.016,10.373c2.645,1.676,5.298,3.323,7.963,4.96
		c1.376,0.844,2.784,1.801,4.248,2.63c0.005,0.15,0.013,0.299,0.018,0.449c0.029,0.903,0.399,1.598,0.912,2.123
		C1354.286,1401.261,1357.295,1401.052,1357.867,1398.8z"/>
	<path style="fill:#FFF7EF;" d="M1476.901,687.221c21.986,41.15,44.716,91.693,79.798,123.191
		c5.235,4.702,14.507,0.224,12.297-7.157c-13.267-44.341-43.754-85.588-64.551-126.898c-22.275-44.244-39.432-91.897-63.179-135.191
		c-7.7-14.032-30.134-4.507-25.776,10.87C1428.691,598.602,1454.163,644.654,1476.901,687.221z"/>
	<path style="fill:#FFF7EF;" d="M1406.604,1723.712c-33.389,20.95-68.755,39.357-106.507,51.026
		c-36.423,11.259-73.352,12.01-110.367,18.918c-7.001,1.306-6.807,12.502,0,13.953c75.859,16.171,169.315-23.702,225.493-72.726
		C1421.318,1729.568,1413.41,1719.444,1406.604,1723.712z"/>
	<path style="fill:#E6AC82;" d="M1291.53,347.631c-61.686-14.085-121.53-30.49-184.706-37.159
		c-121.059-12.794-244.394-2.236-360.431,34.767c-6.278-45.793-20.68-95.824-66.789-115.016
		c-34.923-14.519-83.033,3.493-85.113,45.009c-0.158,3.104,4.081,3.259,5.062,0.706c14.48-38.65,60.94-39.123,87.861-13.968
		c27.508,25.744,31.902,65.335,34.531,100.809c0.589,8.282,8.007,15.503,16.797,12.794
		c128.082-39.396,263.583-54.309,396.689-35.868c63.805,8.833,125.296,30.1,189.22,37.515c36.024,4.161,76.755,2.236,110.385-13.301
		c-0.47-7.455-0.745-14.875-0.745-22.29C1389.554,360.897,1341.013,358.973,1291.53,347.631z"/>
	<path style="fill:#E6AC82;" d="M807.659,297.005c21.752,0.292,43.347-16.029,63.128-23.23
		c29.252-10.646,60.248-15.464,91.31-16.063c51.71-0.994,102.935,8.667,154.1,16.224c64.292,9.491,129.259,15.707,194.222,13.861
		c30.711-0.872,60.092-6.509,74.411-36.857c17.116-36.278-51.089-8.336-65.344-6.685c-47.084,5.457-94.818,1.871-141.549-5.072
		c-68.567-10.183-135.79-28.151-204.336-38.484c-38.039-5.73-76.436-9.102-114.894-10.076c-26.027-0.663-53.542,0.166-75.746,13.764
		C738.032,231.899,753.715,296.274,807.659,297.005z"/>
	<path style="fill:#C68D66;" d="M746.668,1884.788c50.11-70.714,71.732-157.476,86.095-242.943
		c53.564-319.541,17.225-653.719-103.832-954.308c-26.804-66.514-68.477-157.51-124.787-228.224
		c2.079,5.708,4.013,11.47,5.826,17.274c0.548,1.755,1.011,3.538,1.535,5.301c1.211,4.072,2.426,8.143,3.515,12.253
		c0.565,2.13,1.044,4.284,1.578,6.423c0.939,3.772,1.893,7.539,2.737,11.337c0.52,2.34,0.962,4.698,1.447,7.046
		c0.748,3.619,1.51,7.233,2.177,10.868c0.461,2.514,0.854,5.039,1.278,7.56c0.585,3.475,1.182,6.946,1.699,10.43
		c0.405,2.722,0.746,5.451,1.11,8.178c0.436,3.265,0.885,6.528,1.265,9.797c0.351,3.012,0.646,6.024,0.952,9.038
		c0.299,2.942,0.611,5.882,0.869,8.824c0.3,3.419,0.549,6.833,0.797,10.249c0.127,1.758,0.296,3.52,0.41,5.276
		c33.825,59.099,60.668,122.353,81.15,180.745c51.798,147.664,70.791,305.412,70.438,461.948
		c-0.314,153.277-20.955,312.399-103.164,441.773c-50.426,79.347-128.831,144.448-216.455,175.449
		c0.488,0.828,1.014,1.639,1.513,2.464c0.431,0.714,0.87,1.423,1.309,2.134c2.46,3.975,5.022,7.9,7.724,11.754
		c0.421,0.6,0.861,1.188,1.288,1.785c2.87,4.017,5.836,7.981,8.966,11.841c24.526,30.216,55.486,53.608,90.254,71.264
		c16.952,8.672,34.847,15.971,53.291,22.012C674.895,1962.484,716.805,1926.932,746.668,1884.788z"/>
	<path style="fill:#E6AC82;" d="M858.836,481.677c-11.637-22.095-27.265-46.889-47.257-62.299
		c-6.256-4.823-12.765,4.156-9.898,9.895c10.972,21.978,32.506,41.666,51.376,56.862
		C856.219,488.683,860.885,485.57,858.836,481.677z"/>
	<path style="fill:#E6AC82;" d="M1020.633,465.468c-7.82-21.14-19.703-40.176-32.404-58.66c-5.895-8.58-18.643-1.213-13.978,8.171
		c9.983,20.068,20.848,39.722,35.52,56.814C1013.915,476.615,1022.865,471.494,1020.633,465.468z"/>
	<path style="fill:#E6AC82;" d="M1179.959,467.49c4.156,3.464,12.261,0.336,10.044-5.847c-8.58-23.922-26.5-44.721-43.33-63.264
		c-5.125-5.652-13.53,1.545-10.207,7.873C1147.786,427.83,1160.947,451.626,1179.959,467.49z"/>
	<path style="fill:#E6AC82;" d="M1280.601,432.937c4.492,5.374,10.261,11.98,16.417,15.313c4.093,2.212,9.193-1.447,7.927-6.095
		c-1.836-6.743-6.943-13.822-11.099-19.44c-4.604-6.226-9.881-12.034-14.821-17.997c-5.71-6.884-18.005,2.431-12.519,9.661
		C1271.181,420.547,1275.639,426.997,1280.601,432.937z"/>
	<path style="fill:#E6AC82;" d="M795.625,622.461c-3.72-6.407-15.04-2.163-12.326,5.194c13.167,35.741,27.561,76.872,49.625,108.043
		c4.86,6.865,16.512,2.957,14.119-5.953C837.145,692.853,814.695,655.304,795.625,622.461z"/>
	<path style="fill:#E6AC82;" d="M921.172,1359.216c8.472,62.158,12.531,125.13,5.864,187.653
		c-0.887,8.302,13.347,10.314,14.694,1.988c10.495-64.955,9.33-129.32-11.096-192.253
		C928.626,1350.426,920.341,1353.11,921.172,1359.216z"/>
	<path style="fill:#E6AC82;" d="M854.122,859.226c19.842,70.197,38.711,140.341,53.659,211.775c0.811,3.869,7.367,3.074,6.987-0.945
		c-6.931-73.106-22.719-145.51-50.003-213.763C862.198,849.871,852.139,852.21,854.122,859.226z"/>
	<path style="fill:#E6AC82;" d="M907.837,1852.813c-16.602,6.582-32.312,14.684-46.567,25.53
		c-12.378,9.418-28.127,20.321-34.773,34.743c-1.067,2.314,1.123,4.765,3.523,3.523c14.275-7.371,25.596-21.413,38.514-31.016
		c13.393-9.954,26.996-19.586,41.099-28.521C911.747,1855.731,910.402,1851.795,907.837,1852.813z"/>
</g>
</svg>
